<svg xmlns="http://www.w3.org/2000/svg" viewBox="0 0 845 760" font-family="Segoe UI,Arial,sans-serif">
<rect x="0" y="0" width="845" height="760" fill="#15151c"/>
<text x="46" y="28" fill="#d6d6e0" font-size="20" font-weight="700">L2「痛苦回廊」· 阻挡物与结构 平面图(白盒·俯视)</text>
<text x="46" y="44" fill="#8a8a9a" font-size="12">坐标=WALK 单位 · 世界=×1.5 · 北(−Z)在上 · 立柱=碰撞阻挡物,结构件=无碰撞装饰</text>
<rect x="46.0" y="241.0" width="48.6" height="48.6" fill="#262630" stroke="#3c3c4a" stroke-width="1.2"/>
<text x="70.3" y="265.3" fill="#8a8a9a" font-size="9.5" text-anchor="middle" dominant-baseline="middle">W1 西门入口</text>
<rect x="83.8" y="268.0" width="91.8" height="21.6" fill="#262630" stroke="#3c3c4a" stroke-width="1.2"/>
<text x="129.7" y="278.8" fill="#8a8a9a" font-size="9.5" text-anchor="middle" dominant-baseline="middle">W2 西廊</text>
<rect x="175.6" y="278.8" width="70.2" height="86.4" fill="#262630" stroke="#3c3c4a" stroke-width="1.2"/>
<text x="210.7" y="322.0" fill="#8a8a9a" font-size="9.5" text-anchor="middle" dominant-baseline="middle">H 中央枢纽</text>
<rect x="186.4" y="95.2" width="27.0" height="199.8" fill="#262630" stroke="#3c3c4a" stroke-width="1.2"/>
<text x="199.9" y="195.1" fill="#8a8a9a" font-size="9.5" text-anchor="middle" dominant-baseline="middle">N1 长北廊</text>
<rect x="159.4" y="52.0" width="75.6" height="54.0" fill="#262630" stroke="#3c3c4a" stroke-width="1.2"/>
<text x="197.2" y="79.0" fill="#8a8a9a" font-size="9.5" text-anchor="middle" dominant-baseline="middle">NP 北门</text>
<rect x="213.4" y="143.8" width="86.4" height="64.8" fill="#262630" stroke="#3c3c4a" stroke-width="1.2"/>
<text x="256.6" y="176.2" fill="#8a8a9a" font-size="9.5" text-anchor="middle" dominant-baseline="middle">UC 上中室</text>
<rect x="170.2" y="354.4" width="43.2" height="37.8" fill="#262630" stroke="#3c3c4a" stroke-width="1.2"/>
<text x="191.8" y="373.3" fill="#8a8a9a" font-size="9.5" text-anchor="middle" dominant-baseline="middle">T1 西南廊</text>
<rect x="83.8" y="349.0" width="86.4" height="54.0" fill="#262630" stroke="#3c3c4a" stroke-width="1.2"/>
<text x="127.0" y="376.0" fill="#8a8a9a" font-size="9.5" text-anchor="middle" dominant-baseline="middle">TR 死胡同/祭坛室</text>
<rect x="245.8" y="322.0" width="81.0" height="32.4" fill="#262630" stroke="#3c3c4a" stroke-width="1.2"/>
<text x="286.3" y="338.2" fill="#8a8a9a" font-size="9.5" text-anchor="middle" dominant-baseline="middle">E1 东廊</text>
<rect x="326.8" y="305.8" width="54.0" height="54.0" fill="#262630" stroke="#3c3c4a" stroke-width="1.2"/>
<text x="353.8" y="332.8" fill="#8a8a9a" font-size="9.5" text-anchor="middle" dominant-baseline="middle">GR 齿轮室</text>
<rect x="375.4" y="305.8" width="75.6" height="21.6" fill="#262630" stroke="#3c3c4a" stroke-width="1.2"/>
<text x="413.2" y="316.6" fill="#8a8a9a" font-size="9.5" text-anchor="middle" dominant-baseline="middle">RL_N 右环北</text>
<rect x="429.4" y="327.4" width="21.6" height="64.8" fill="#262630" stroke="#3c3c4a" stroke-width="1.2"/>
<text x="440.2" y="359.8" fill="#8a8a9a" font-size="9.5" text-anchor="middle" dominant-baseline="middle">RL_E 右环东</text>
<rect x="375.4" y="370.6" width="75.6" height="32.4" fill="#262630" stroke="#3c3c4a" stroke-width="1.2"/>
<text x="413.2" y="386.8" fill="#8a8a9a" font-size="9.5" text-anchor="middle" dominant-baseline="middle">RL_S 右环南</text>
<rect x="375.4" y="327.4" width="21.6" height="54.0" fill="#262630" stroke="#3c3c4a" stroke-width="1.2"/>
<text x="386.2" y="354.4" fill="#8a8a9a" font-size="9.5" text-anchor="middle" dominant-baseline="middle">RL_W 右环西</text>
<rect x="413.2" y="392.2" width="27.0" height="43.2" fill="#262630" stroke="#3c3c4a" stroke-width="1.2"/>
<text x="426.7" y="413.8" fill="#8a8a9a" font-size="9.5" text-anchor="middle" dominant-baseline="middle">BC Boss入口廊</text>
<rect x="429.4" y="424.6" width="91.8" height="81.0" fill="#262630" stroke="#3c3c4a" stroke-width="1.2"/>
<text x="475.3" y="465.1" fill="#8a8a9a" font-size="9.5" text-anchor="middle" dominant-baseline="middle">BOSS Boss厅</text>
<rect x="186.4" y="359.8" width="27.0" height="81.0" fill="#262630" stroke="#3c3c4a" stroke-width="1.2"/>
<text x="199.9" y="400.3" fill="#8a8a9a" font-size="9.5" text-anchor="middle" dominant-baseline="middle">S1 枢纽南廊</text>
<rect x="186.4" y="413.8" width="232.2" height="32.4" fill="#262630" stroke="#3c3c4a" stroke-width="1.2"/>
<text x="302.5" y="430.0" fill="#8a8a9a" font-size="9.5" text-anchor="middle" dominant-baseline="middle">S2 南长廊</text>
<circle cx="132.4" cy="278.8" r="3.2" fill="none" stroke="#5a6a55" stroke-width="1.4"/>
<circle cx="210.7" cy="322.0" r="3.2" fill="none" stroke="#5a6a55" stroke-width="1.4"/>
<circle cx="253.9" cy="332.8" r="3.2" fill="none" stroke="#5a6a55" stroke-width="1.4"/>
<circle cx="286.3" cy="338.2" r="3.2" fill="none" stroke="#5a6a55" stroke-width="1.4"/>
<circle cx="353.8" cy="332.8" r="3.2" fill="none" stroke="#5a6a55" stroke-width="1.4"/>
<circle cx="413.2" cy="386.8" r="3.2" fill="none" stroke="#5a6a55" stroke-width="1.4"/>
<circle cx="199.9" cy="176.2" r="3.2" fill="none" stroke="#5a6a55" stroke-width="1.4"/>
<circle cx="197.2" cy="73.6" r="3.2" fill="none" stroke="#5a6a55" stroke-width="1.4"/>
<circle cx="321.4" cy="430.0" r="3.2" fill="none" stroke="#5a6a55" stroke-width="1.4"/>
<circle cx="426.7" cy="413.8" r="3.2" fill="none" stroke="#5a6a55" stroke-width="1.4"/>
<circle cx="475.3" cy="465.1" r="3.2" fill="none" stroke="#5a6a55" stroke-width="1.4"/>
<circle cx="202.6" cy="332.8" r="3.2" fill="none" stroke="#5a6a55" stroke-width="1.4"/>
<circle cx="224.2" cy="311.2" r="3.2" fill="none" stroke="#5a6a55" stroke-width="1.4"/>
<circle cx="286.3" cy="343.6" r="3.2" fill="none" stroke="#5a6a55" stroke-width="1.4"/>
<circle cx="413.2" cy="376.0" r="3.2" fill="none" stroke="#5a6a55" stroke-width="1.4"/>
<circle cx="475.3" cy="446.2" r="3.2" fill="none" stroke="#5a6a55" stroke-width="1.4"/>
<line x1="108.1" y1="278.8" x2="151.3" y2="278.8" stroke="#56c0b0" stroke-width="2" stroke-dasharray="3 2"/>
<circle cx="108.1" cy="278.8" r="2.2" fill="#56c0b0"/>
<circle cx="118.9" cy="278.8" r="2.2" fill="#56c0b0"/>
<circle cx="129.7" cy="278.8" r="2.2" fill="#56c0b0"/>
<circle cx="140.5" cy="278.8" r="2.2" fill="#56c0b0"/>
<circle cx="151.3" cy="278.8" r="2.2" fill="#56c0b0"/>
<line x1="202.6" y1="284.2" x2="218.8" y2="284.2" stroke="#6aa6d8" stroke-width="2"/>
<circle cx="202.6" cy="284.2" r="2.6" fill="#6aa6d8"/>
<circle cx="218.8" cy="284.2" r="2.6" fill="#6aa6d8"/>
<rect x="123.6" y="372.6" width="6.8" height="6.8" fill="#bf6ae0"/>
<line x1="253.9" y1="330.1" x2="253.9" y2="346.3" stroke="#6aa6d8" stroke-width="2"/>
<circle cx="253.9" cy="330.1" r="2.6" fill="#6aa6d8"/>
<circle cx="253.9" cy="346.3" r="2.6" fill="#6aa6d8"/>
<line x1="345.7" y1="316.6" x2="361.9" y2="316.6" stroke="#b08858" stroke-width="3" stroke-dasharray="2 2"/>
<line x1="391.6" y1="386.8" x2="434.8" y2="386.8" stroke="#56c0b0" stroke-width="2" stroke-dasharray="3 2"/>
<circle cx="391.6" cy="386.8" r="2.2" fill="#56c0b0"/>
<circle cx="402.4" cy="386.8" r="2.2" fill="#56c0b0"/>
<circle cx="413.2" cy="386.8" r="2.2" fill="#56c0b0"/>
<circle cx="424.0" cy="386.8" r="2.2" fill="#56c0b0"/>
<circle cx="434.8" cy="386.8" r="2.2" fill="#56c0b0"/>
<line x1="418.6" y1="408.4" x2="434.8" y2="408.4" stroke="#6aa6d8" stroke-width="2"/>
<circle cx="418.6" cy="408.4" r="2.6" fill="#6aa6d8"/>
<circle cx="434.8" cy="408.4" r="2.6" fill="#6aa6d8"/>
<line x1="451.0" y1="443.5" x2="451.0" y2="486.7" stroke="#56c0b0" stroke-width="2" stroke-dasharray="3 2"/>
<circle cx="451.0" cy="443.5" r="2.2" fill="#56c0b0"/>
<circle cx="451.0" cy="454.3" r="2.2" fill="#56c0b0"/>
<circle cx="451.0" cy="465.1" r="2.2" fill="#56c0b0"/>
<circle cx="451.0" cy="475.9" r="2.2" fill="#56c0b0"/>
<circle cx="451.0" cy="486.7" r="2.2" fill="#56c0b0"/>
<line x1="499.6" y1="443.5" x2="499.6" y2="486.7" stroke="#56c0b0" stroke-width="2" stroke-dasharray="3 2"/>
<circle cx="499.6" cy="443.5" r="2.2" fill="#56c0b0"/>
<circle cx="499.6" cy="454.3" r="2.2" fill="#56c0b0"/>
<circle cx="499.6" cy="465.1" r="2.2" fill="#56c0b0"/>
<circle cx="499.6" cy="475.9" r="2.2" fill="#56c0b0"/>
<circle cx="499.6" cy="486.7" r="2.2" fill="#56c0b0"/>
<circle cx="199.9" cy="208.6" r="3.4" fill="#f0a830"/>
<circle cx="199.9" cy="208.6" r="6" fill="none" stroke="#f0a830" stroke-width="0.8" opacity="0.5"/>
<circle cx="197.2" cy="419.2" r="3.4" fill="#f0a830"/>
<circle cx="197.2" cy="419.2" r="6" fill="none" stroke="#f0a830" stroke-width="0.8" opacity="0.5"/>
<path d="M 64.3 270.3 L 70.3 259.3 L 76.3 270.3" fill="none" stroke="#46c878" stroke-width="2.2"/>
<text x="70.3" y="281.3" fill="#46c878" font-size="9" text-anchor="middle">入口</text>
<circle cx="475.3" cy="465.1" r="5" fill="#d03838"/>
<circle cx="210.7" cy="322.0" r="4" fill="none" stroke="#8888a8" stroke-width="1.6"/>
<circle cx="191.8" cy="305.8" r="4.0" fill="#e35038" stroke="#ff8a6a" stroke-width="1"/>
<text x="191.8" y="299.8" fill="#ff8a6a" font-size="8.5" text-anchor="middle">O1</text>
<circle cx="229.6" cy="338.2" r="4.0" fill="#e35038" stroke="#ff8a6a" stroke-width="1"/>
<text x="229.6" y="332.2" fill="#ff8a6a" font-size="8.5" text-anchor="middle">O2</text>
<circle cx="272.8" cy="330.1" r="4.0" fill="#e35038" stroke="#ff8a6a" stroke-width="1"/>
<text x="272.8" y="324.1" fill="#ff8a6a" font-size="8.5" text-anchor="middle">O3</text>
<circle cx="299.8" cy="346.3" r="4.0" fill="#e35038" stroke="#ff8a6a" stroke-width="1"/>
<text x="299.8" y="340.3" fill="#ff8a6a" font-size="8.5" text-anchor="middle">O4</text>
<circle cx="337.6" cy="343.6" r="4.0" fill="#e35038" stroke="#ff8a6a" stroke-width="1"/>
<text x="337.6" y="337.6" fill="#ff8a6a" font-size="8.5" text-anchor="middle">O5</text>
<circle cx="370.0" cy="322.0" r="4.0" fill="#e35038" stroke="#ff8a6a" stroke-width="1"/>
<text x="370.0" y="316.0" fill="#ff8a6a" font-size="8.5" text-anchor="middle">O6</text>
<circle cx="397.0" cy="386.8" r="4.0" fill="#e35038" stroke="#ff8a6a" stroke-width="1"/>
<text x="397.0" y="380.8" fill="#ff8a6a" font-size="8.5" text-anchor="middle">O7</text>
<circle cx="429.4" cy="386.8" r="4.0" fill="#e35038" stroke="#ff8a6a" stroke-width="1"/>
<text x="429.4" y="380.8" fill="#ff8a6a" font-size="8.5" text-anchor="middle">O8</text>
<circle cx="461.8" cy="451.6" r="4.0" fill="#e35038" stroke="#ff8a6a" stroke-width="1"/>
<text x="461.8" y="445.6" fill="#ff8a6a" font-size="8.5" text-anchor="middle">O9</text>
<circle cx="488.8" cy="451.6" r="4.0" fill="#e35038" stroke="#ff8a6a" stroke-width="1"/>
<text x="488.8" y="445.6" fill="#ff8a6a" font-size="8.5" text-anchor="middle">O10</text>
<circle cx="461.8" cy="478.6" r="4.0" fill="#e35038" stroke="#ff8a6a" stroke-width="1"/>
<text x="461.8" y="472.6" fill="#ff8a6a" font-size="8.5" text-anchor="middle">O11</text>
<circle cx="488.8" cy="478.6" r="4.0" fill="#e35038" stroke="#ff8a6a" stroke-width="1"/>
<text x="488.8" y="472.6" fill="#ff8a6a" font-size="8.5" text-anchor="middle">O12</text>
<text x="545.2" y="66" fill="#d6d6e0" font-size="14" font-weight="700">图例</text>
<circle cx="552.2" cy="83" r="4.5" fill="#e35038"/>
<text x="565.2" y="86" fill="#d6d6e0" font-size="11">碰撞立柱(阻挡物)</text>
<line x1="547.2" y1="100" x2="557.2" y2="100" stroke="#6aa6d8" stroke-width="2.4"/>
<text x="565.2" y="103" fill="#d6d6e0" font-size="11">拱门 arch</text>
<circle cx="548.2" cy="117" r="1.8" fill="#56c0b0"/>
<circle cx="552.2" cy="117" r="1.8" fill="#56c0b0"/>
<circle cx="556.2" cy="117" r="1.8" fill="#56c0b0"/>
<text x="565.2" y="120" fill="#d6d6e0" font-size="11">列柱廊 colonnade</text>
<circle cx="552.2" cy="134" r="4.5" fill="#f0a830"/>
<text x="565.2" y="137" fill="#d6d6e0" font-size="11">火盆 brazier</text>
<rect x="548.2" y="147" width="8" height="8" fill="#bf6ae0"/>
<text x="565.2" y="154" fill="#d6d6e0" font-size="11">祭坛 altar</text>
<line x1="547.2" y1="168" x2="557.2" y2="168" stroke="#b08858" stroke-width="2.4"/>
<text x="565.2" y="171" fill="#d6d6e0" font-size="11">断墙 broken_wall</text>
<circle cx="552.2" cy="185" r="4.5" fill="#46c878"/>
<text x="565.2" y="188" fill="#d6d6e0" font-size="11">入口 entrance</text>
<circle cx="552.2" cy="202" r="4.5" fill="#d03838"/>
<text x="565.2" y="205" fill="#d6d6e0" font-size="11">Boss 中心柱</text>
<circle cx="552.2" cy="219" r="4.5" fill="none" stroke="#8888a8" stroke-width="1.6"/>
<text x="565.2" y="222" fill="#d6d6e0" font-size="11">枢纽地标 waypoint</text>
<circle cx="552.2" cy="236" r="4.5" fill="none" stroke="#5a6a55" stroke-width="1.6"/>
<text x="565.2" y="239" fill="#d6d6e0" font-size="11">遭遇刷怪点</text>
<text x="545.2" y="266" fill="#d6d6e0" font-size="14" font-weight="700">碰撞立柱(阻挡物)精确表</text>
<text x="545.2" y="282" fill="#8a8a9a" font-size="9.5">id  WALK(x,z)  世界(x,z)  半径/直径(世界)·高3.5</text>
<text x="545.2" y="296" fill="#d6d6e0" font-size="9.5"> O1  (-38,8)  (-57,12)  r=1.4 / ⌀2.8  枢纽·西北</text>
<text x="545.2" y="309.2" fill="#d6d6e0" font-size="9.5"> O2  (-24,20)  (-36,30)  r=1.4 / ⌀2.8  枢纽·东南</text>
<text x="545.2" y="322.4" fill="#d6d6e0" font-size="9.5"> O3  (-8,17)  (-12,26)  r=1.2 / ⌀2.4  东廊chicane</text>
<text x="545.2" y="335.59999999999997" fill="#d6d6e0" font-size="9.5"> O4  (2,23)  (3,34)  r=1.2 / ⌀2.4  东廊chicane</text>
<text x="545.2" y="348.79999999999995" fill="#d6d6e0" font-size="9.5"> O5  (16,22)  (24,33)  r=1.3 / ⌀2.6  齿轮室</text>
<text x="545.2" y="361.99999999999994" fill="#d6d6e0" font-size="9.5"> O6  (28,14)  (42,21)  r=1.3 / ⌀2.6  齿轮室</text>
<text x="545.2" y="375.19999999999993" fill="#d6d6e0" font-size="9.5"> O7  (38,38)  (57,57)  r=1.3 / ⌀2.6  右环·南</text>
<text x="545.2" y="388.3999999999999" fill="#d6d6e0" font-size="9.5"> O8  (50,38)  (75,57)  r=1.3 / ⌀2.6  右环·南</text>
<text x="545.2" y="401.5999999999999" fill="#d6d6e0" font-size="9.5"> O9  (62,62)  (93,93)  r=1.5 / ⌀3.0  Boss厅·西南</text>
<text x="545.2" y="414.7999999999999" fill="#d6d6e0" font-size="9.5">O10  (72,62)  (108,93)  r=1.5 / ⌀3.0  Boss厅·东南</text>
<text x="545.2" y="427.9999999999999" fill="#d6d6e0" font-size="9.5">O11  (62,72)  (93,108)  r=1.5 / ⌀3.0  Boss厅·西北</text>
<text x="545.2" y="441.1999999999999" fill="#d6d6e0" font-size="9.5">O12  (72,72)  (108,108)  r=1.5 / ⌀3.0  Boss厅·东北</text>
</svg>